name analog
datacolumns 19
datarows 22
range 0.341 0.35150000000000003
endheader
time	ground_force_vx	ground_force_vy	ground_force_vz	ground_force_px	ground_force_py	ground_force_pz	l_ground_force_vx	l_ground_force_vy	l_ground_force_vz	l_ground_force_px	l_ground_force_py	l_ground_force_pz	ground_torque_x	ground_torque_y	ground_torque_z	l_ground_torque_x	l_ground_torque_y	l_ground_torque_z
0.341	-0.0	-0.0	-0.0	-0.6558656692504883	4.975620746612549	-301.38677978515625	-0.0423744767904281	-8.037273406982422	-274.31158447265625	-0.0	-0.0	-0.0	-0.0	-0.0	-0.0	84877.40625	-8908.849609375	-3912.56005859375
0.3415	-0.0	-0.0	-0.0	-1.2383182048797607	4.320169448852539	-302.5294189453125	0.1929247975349426	-7.948951721191406	-274.1280822753906	-0.0	-0.0	-0.0	-0.0	-0.0	-0.0	84172.4765625	-8974.23828125	-3704.70263671875
0.342	-0.0	-0.0	-0.0	-1.064774513244629	4.733977794647217	-300.4934997558594	0.2708756625652313	-8.079072952270508	-272.4422302246094	-0.0	-0.0	-0.0	-0.0	-0.0	-0.0	84008.578125	-9134.564453125	-3734.31982421875
0.3425	-0.0	-0.0	-0.0	-1.201338291168213	4.27825927734375	-299.53564453125	0.7409223318099976	-7.5695414543151855	-271.1064147949219	-0.0	-0.0	-0.0	-0.0	-0.0	-0.0	83804.6015625	-8609.0380859375	-3611.634521484375
0.343	-0.0	-0.0	-0.0	-1.6472649574279783	4.749452590942383	-297.50347900390625	0.4905332028865814	-7.756717205047607	-270.1817321777344	-0.0	-0.0	-0.0	-0.0	-0.0	-0.0	83297.84375	-8999.654296875	-3606.679443359375
0.3435	-0.0	-0.0	-0.0	-1.5165786743164062	4.781101703643799	-294.6786193847656	0.1931537836790084	-8.166927337646484	-268.1484375	-0.0	-0.0	-0.0	-0.0	-0.0	-0.0	83031.7109375	-9293.5283203125	-3690.79931640625
0.34400000000000003	-0.0	-0.0	-0.0	-2.278390884399414	5.0233588218688965	-293.32989501953125	0.114261120557785	-7.948951721191406	-266.5270080566406	-0.0	-0.0	-0.0	-0.0	-0.0	-0.0	82381.8359375	-9239.9404296875	-3652.631103515625
0.34450000000000003	-0.0	-0.0	-0.0	-2.97612738609314	5.258693695068359	-294.7488098144531	0.0570359230041503	-8.131880760192871	-265.1307678222656	-0.0	-0.0	-0.0	-0.0	-0.0	-0.0	82025.578125	-9052.15625	-3715.325927734375
0.34500000000000003	-0.0	-0.0	-0.0	-3.7306838035583496	4.999030590057373	-294.07098388671875	-0.0318088382482528	-8.390560150146484	-263.1977233886719	-0.0	-0.0	-0.0	-0.0	-0.0	-0.0	81288.59375	-9132.1435546875	-3685.81298828125
0.34550000000000003	-0.0	-0.0	-0.0	-4.647078514099121	5.777275085449219	-291.4376525878906	-0.2253081202507019	-8.58309555053711	-260.5299377441406	-0.0	-0.0	-0.0	-0.0	-0.0	-0.0	80258.0859375	-9132.865234375	-3756.02197265625
0.34600000000000003	-0.0	-0.0	-0.0	-4.8740010261535645	5.68031120300293	-293.04412841796875	-0.4595885574817657	-8.960919380187988	-258.78448486328125	-0.0	-0.0	-0.0	-0.0	-0.0	-0.0	79341.78125	-8965.8623046875	-3775.2978515625
0.34650000000000003	-0.0	-0.0	-0.0	-4.963125228881836	6.295624732971191	-291.4679870605469	-0.750164806842804	-9.049113273620604	-254.6580810546875	-0.0	-0.0	-0.0	-0.0	-0.0	-0.0	78539.6484375	-8708.08984375	-3716.212890625
0.34700000000000003	-0.0	-0.0	-0.0	-5.481884002685547	6.870298862457275	-289.57879638671875	-1.209681510925293	-9.217583656311035	-252.02395629882807	-0.0	-0.0	-0.0	-0.0	-0.0	-0.0	77766.9765625	-8485.44140625	-3797.510986328125
0.34750000000000003	-0.0	-0.0	-0.0	-5.214034080505371	6.133550643920898	-288.260009765625	-1.113150954246521	-9.35445785522461	-249.9925537109375	-0.0	-0.0	-0.0	-0.0	-0.0	-0.0	76897.2734375	-8644.4609375	-3894.576416015625
0.34800000000000003	-0.0	-0.0	-0.0	-5.47484827041626	6.579161167144775	-287.2659912109375	-1.2656679153442385	-9.225245475769045	-250.24835205078125	-0.0	-0.0	-0.0	-0.0	-0.0	-0.0	76955.5625	-8642.98046875	-3776.009521484375
0.34850000000000003	-0.0	-0.0	-0.0	-5.035343647003174	6.658151626586914	-287.13531494140625	-1.153240203857422	-8.799718856811523	-250.30601501464844	-0.0	-0.0	-0.0	-0.0	-0.0	-0.0	76770.2578125	-8646.48046875	-3821.849853515625
0.34900000000000003	-0.0	-0.0	-0.0	-5.084999084472656	6.216414451599121	-286.6505126953125	-0.1050741374492645	-8.19076156616211	-250.56204223632807	-0.0	-0.0	-0.0	-0.0	-0.0	-0.0	76682.8671875	-8743.11328125	-3583.726806640625
0.34950000000000003	-0.0	-0.0	-0.0	-4.2821044921875	6.239128112792969	-286.5180053710937	0.6209754943847656	-7.860630035400391	-250.97537231445312	-0.0	-0.0	-0.0	-0.0	-0.0	-0.0	77354.4453125	-8987.5498046875	-3448.074462890625
0.35000000000000003	-0.0	-0.0	-0.0	-3.769052505493164	5.882606506347656	-285.4140930175781	1.5410699844360352	-7.186898708343506	-252.0225524902344	-0.0	-0.0	-0.0	-0.0	-0.0	-0.0	77743.0625	-9274.6728515625	-3102.335205078125
0.35050000000000003	-0.0	-0.0	-0.0	-1.9185521602630613	5.331046581268311	-286.5619201660156	3.2161550521850586	-6.457942008972168	-251.8033905029297	-0.0	-0.0	-0.0	-0.0	-0.0	-0.0	77962.0	-9600.15234375	-2574.594970703125
0.35100000000000003	-0.0	-0.0	-0.0	-0.71368408203125	5.186398983001709	-286.648681640625	4.612960815429688	-5.459423542022705	-253.92112731933597	-0.0	-0.0	-0.0	-0.0	-0.0	-0.0	78692.375	-10147.662109375	-2145.014404296875
0.35150000000000003	-0.0	-0.0	-0.0	0.5398550629615784	5.029707431793213	-287.3363037109375	7.135574817657471	-4.681049346923828	-256.0805053710937	-0.0	-0.0	-0.0	-0.0	-0.0	-0.0	78869.34375	-10171.44921875	-1451.4510498046875
